<svg width="58" height="43" viewBox="0 0 58 43" fill="none" xmlns="http://www.w3.org/2000/svg">
<path d="M57.061 21.9763C56.6936 22.4829 56.3664 23.0255 55.952 23.4894C50.558 29.5374 45.1451 35.5697 39.7544 41.6211C39.1637 42.2839 38.4992 42.5984 37.6147 42.5928C34.0678 42.5714 30.521 42.586 26.973 42.5827C25.7691 42.5815 25.0254 42.0682 24.7875 41.0797C24.6021 40.3102 24.9182 39.7058 25.4162 39.1509C28.3634 35.8629 31.3061 32.5704 34.2499 29.2802C36.3985 26.8785 38.5483 24.4768 40.697 22.074C40.8455 21.9089 40.9885 21.7381 41.1683 21.5315C41.0186 21.3562 40.8812 21.1888 40.7361 21.026C35.6313 15.3183 30.5255 9.61292 25.4218 3.90416C24.4949 2.86733 24.4837 1.63728 25.471 0.931829C25.8507 0.659983 26.3923 0.4971 26.8625 0.492607C30.5199 0.45666 34.1784 0.47351 37.8369 0.471263C38.5494 0.471263 39.1201 0.737492 39.5992 1.27444C45.1976 7.54038 50.8048 13.7973 56.3999 20.0666C56.6656 20.3643 56.8421 20.7406 57.061 21.081V21.9774V21.9763Z" fill="url(#paint0_linear_7_129)"/>
<path d="M16.4493 21.5271C15.9043 20.9138 15.3883 20.3308 14.8691 19.75C10.1496 14.4748 5.42789 9.19968 0.707314 3.92452C-0.3726 2.71694 -0.155947 1.19033 1.18864 0.655627C1.50692 0.528691 1.87434 0.480387 2.21942 0.479264C5.82211 0.468031 9.42481 0.477017 13.0275 0.468031C13.8048 0.465784 14.4112 0.749987 14.9327 1.33412C20.5031 7.57422 26.0848 13.8053 31.6608 20.0398C32.5676 21.0542 32.5665 22.0056 31.6585 23.0211C26.0814 29.2556 20.5009 35.4867 14.9305 41.7268C14.4089 42.311 13.7992 42.5896 13.023 42.5873C9.42034 42.5783 5.81765 42.5817 2.21495 42.5839C1.31149 42.5839 0.559901 42.2975 0.171266 41.419C-0.219603 40.535 0.100909 39.7992 0.705081 39.1241C5.76627 33.4782 10.8219 27.8267 15.8786 22.1764C16.0629 21.9708 16.2427 21.7619 16.4504 21.526L16.4493 21.5271Z" fill="url(#paint1_linear_7_129)"/>
<defs>
<linearGradient id="paint0_linear_7_129" x1="29.6586" y1="-28.1748" x2="76.6032" y2="-21.6249" gradientUnits="userSpaceOnUse">
<stop stop-color="#00BF91"/>
<stop offset="1" stop-color="#0091BF"/>
</linearGradient>
<linearGradient id="paint1_linear_7_129" x1="4.93131" y1="-28.1731" x2="51.8865" y2="-21.6195" gradientUnits="userSpaceOnUse">
<stop stop-color="#00BF91"/>
<stop offset="1" stop-color="#0091BF"/>
</linearGradient>
</defs>
</svg>
