<svg width="58" height="43" viewBox="0 0 58 43" fill="none" xmlns="http://www.w3.org/2000/svg">
<path d="M5.34058e-05 21.9763C0.36747 22.4829 0.694685 23.0255 1.109 23.4894C6.503 29.5374 11.916 35.5697 17.3066 41.6211C17.8974 42.2839 18.5619 42.5984 19.4463 42.5928C22.9932 42.5714 26.5401 42.586 30.088 42.5827C31.2919 42.5815 32.0357 42.0682 32.2735 41.0797C32.4589 40.3102 32.1429 39.7058 31.6448 39.1509C28.6976 35.8629 25.755 32.5704 22.8112 29.2802C20.6625 26.8785 18.5127 24.4768 16.3641 22.074C16.2155 21.9089 16.0726 21.7381 15.8928 21.5315C16.0424 21.3562 16.1798 21.1888 16.325 21.026C21.4297 15.3183 26.5356 9.61292 31.6392 3.90416C32.5661 2.86733 32.5773 1.63728 31.5901 0.931829C31.2104 0.659983 30.6687 0.4971 30.1986 0.492607C26.5412 0.45666 22.8826 0.47351 19.2241 0.471263C18.5116 0.471263 17.9409 0.737492 17.4618 1.27444C11.8635 7.54038 6.25619 13.7973 0.66118 20.0666C0.39539 20.3643 0.218941 20.7406 5.34058e-05 21.081V21.9774V21.9763Z" fill="url(#paint0_linear_7_132)"/>
<path d="M40.6118 21.5271C41.1567 20.9138 41.6727 20.3308 42.192 19.75C46.9114 14.4748 51.6331 9.19968 56.3537 3.92452C57.4336 2.71694 57.217 1.19033 55.8724 0.655627C55.5541 0.528691 55.1867 0.480387 54.8416 0.479264C51.2389 0.468031 47.6362 0.477017 44.0335 0.468031C43.2563 0.465784 42.6499 0.749987 42.1283 1.33412C36.5579 7.57422 30.9763 13.8053 25.4003 20.0398C24.4934 21.0542 24.4946 22.0056 25.4025 23.0211C30.9796 29.2556 36.5601 35.4867 42.1306 41.7268C42.6521 42.311 43.2618 42.5896 44.038 42.5873C47.6407 42.5783 51.2434 42.5817 54.8461 42.5839C55.7495 42.5839 56.5011 42.2975 56.8898 41.419C57.2806 40.535 56.9601 39.7992 56.356 39.1241C51.2948 33.4782 46.2392 27.8267 41.1824 22.1764C40.9982 21.9708 40.8184 21.7619 40.6106 21.526L40.6118 21.5271Z" fill="url(#paint1_linear_7_132)"/>
<defs>
<linearGradient id="paint0_linear_7_132" x1="27.4024" y1="-28.1748" x2="-19.5422" y2="-21.6249" gradientUnits="userSpaceOnUse">
<stop stop-color="#00BF91"/>
<stop offset="1" stop-color="#0091BF"/>
</linearGradient>
<linearGradient id="paint1_linear_7_132" x1="52.1297" y1="-28.1731" x2="5.17458" y2="-21.6195" gradientUnits="userSpaceOnUse">
<stop stop-color="#00BF91"/>
<stop offset="1" stop-color="#0091BF"/>
</linearGradient>
</defs>
</svg>
