<svg width="140" height="64" viewBox="0 0 140 64" fill="none" xmlns="http://www.w3.org/2000/svg">
<path d="M112.801 0.842551L112.759 1.34082L112.801 0.842551ZM36.2627 62.3497L36.3448 62.8429L36.2627 62.3497ZM0.154901 55.3159L2.39151 60.6385L5.88278 56.0403L0.154901 55.3159ZM133.499 46.4048C134.449 44.9291 135.307 43.3965 136.063 41.8254L135.162 41.3917C134.424 42.9257 133.586 44.4223 132.658 45.8634L133.499 46.4048ZM139.352 31.8741C140.008 28.3278 140.116 24.7685 139.584 21.3791L138.596 21.5343C139.109 24.7982 139.007 28.2427 138.369 31.6922L139.352 31.8741ZM135.754 11.5884C133.855 8.84314 131.272 6.44965 127.934 4.57189L127.444 5.44344C130.654 7.24932 133.122 9.54096 134.932 12.1573L135.754 11.5884ZM118.038 1.05795C116.408 0.737415 114.677 0.497276 112.843 0.34428L112.759 1.34082C114.559 1.49095 116.253 1.72623 117.846 2.03917L118.038 1.05795ZM112.843 0.34428C111.078 0.19709 109.354 0.299901 107.666 0.62248L107.854 1.60471C109.456 1.29857 111.088 1.20144 112.759 1.34082L112.843 0.34428ZM98.2644 4.71823C95.6086 6.50373 93.0238 8.74813 90.4794 11.3009L91.1876 12.0069C93.7022 9.48404 96.2367 7.28647 98.8223 5.54811L98.2644 4.71823ZM83.6719 18.8508C81.5571 21.3824 79.4454 24.0473 77.3202 26.7569L78.107 27.3741C80.2311 24.6659 82.335 22.011 84.4394 19.4918L83.6719 18.8508ZM71.0631 34.7129C68.9473 37.3625 66.8012 39.9765 64.6068 42.4777L65.3585 43.1372C67.567 40.62 69.7236 37.9929 71.8445 35.3369L71.0631 34.7129ZM57.6529 49.7625C55.1403 52.1376 52.5538 54.2805 49.8713 56.0933L50.4312 56.9218C53.1686 55.0719 55.7975 52.8925 58.3398 50.4892L57.6529 49.7625ZM40.9982 60.6264C39.4281 61.1678 37.8235 61.5829 36.1806 61.8565L36.3448 62.8429C38.0456 62.5597 39.7043 62.1304 41.3242 61.5718L40.9982 60.6264ZM36.1806 61.8565C34.5824 62.1227 33.0108 62.3106 31.4717 62.4305L31.5494 63.4275C33.1166 63.3054 34.7171 63.114 36.3448 62.8429L36.1806 61.8565ZM21.9997 62.3561C18.5783 62.0393 15.4379 61.4358 12.6696 60.7035L12.4139 61.6702C15.2312 62.4155 18.4263 63.0295 21.9075 63.3518L21.9997 62.3561Z" fill="white"/>
</svg>
