<svg width="139" height="68" viewBox="0 0 139 68" fill="none" xmlns="http://www.w3.org/2000/svg">
<path d="M28.9135 67.1275L28.9306 66.6278L28.9135 67.1275ZM102.345 1.943L102.239 1.45441L102.345 1.943ZM138.754 7.19874L136.26 1.99207L132.998 6.75595L138.754 7.19874ZM6.00743 22.6344C5.13065 24.1549 4.3492 25.7277 3.67092 27.334L4.59216 27.723C5.25441 26.1546 6.01751 24.6188 6.87371 23.134L6.00743 22.6344ZM0.873233 37.4345C0.391896 41.0087 0.458349 44.569 1.15642 47.9283L2.13551 47.7248C1.4633 44.49 1.39608 41.0447 1.86429 37.568L0.873233 37.4345ZM5.46101 57.5195C7.4925 60.1684 10.1898 62.4324 13.6157 64.1443L14.0627 63.2498C10.7679 61.6034 8.19063 59.4355 6.25452 56.911L5.46101 57.5195ZM23.6719 67.169C25.3164 67.4093 27.057 67.5643 28.8964 67.6272L28.9306 66.6278C27.1257 66.566 25.422 66.4141 23.8164 66.1795L23.6719 67.169ZM28.8964 67.6272C30.6662 67.6877 32.3829 67.5005 34.0533 67.0956L33.8177 66.1238C32.2325 66.5081 30.6064 66.6851 28.9306 66.6278L28.8964 67.6272ZM43.2427 62.544C45.8078 60.6305 48.2795 58.2621 50.6958 55.5877L49.9537 54.9173C47.5659 57.5603 45.1421 59.8795 42.6448 61.7425L43.2427 62.544ZM57.125 47.7133C59.1132 45.081 61.0918 42.3158 63.0816 39.5053L62.2655 38.9275C60.2767 41.7365 58.3054 44.4913 56.327 47.1106L57.125 47.7133ZM68.9413 31.2522C70.9247 28.5021 72.94 25.7861 75.0093 23.1803L74.2261 22.5584C72.1437 25.1809 70.1184 27.9105 68.1302 30.6673L68.9413 31.2522ZM81.5978 15.5635C83.9909 13.0681 86.4693 10.801 89.0597 8.85888L88.4599 8.05878C85.8164 10.0406 83.2976 12.3463 80.876 14.8713L81.5978 15.5635ZM97.7 3.89636C99.2417 3.27863 100.824 2.78537 102.452 2.43159L102.239 1.45441C100.554 1.82065 98.9186 2.33078 97.3281 2.9681L97.7 3.89636ZM102.452 2.43159C104.035 2.08744 105.595 1.82272 107.127 1.62754L107 0.635569C105.441 0.834308 103.852 1.1039 102.239 1.45441L102.452 2.43159ZM116.591 1.23761C120.024 1.38631 123.19 1.83522 125.991 2.43095L126.199 1.45283C123.348 0.846565 120.127 0.389847 116.634 0.238544L116.591 1.23761Z" fill="white"/>
</svg>
