<svg width="144" height="52" viewBox="0 0 144 52" fill="none" xmlns="http://www.w3.org/2000/svg">
<path d="M19.0001 50L19.2102 49.5463L19.0001 50ZM112 18.5L112.092 18.0086L112 18.5ZM143.5 37.5L143.226 31.733L138.369 34.8536L143.5 37.5ZM15.1981 0.101454C13.7991 1.16131 12.4676 2.30642 11.218 3.52261L11.9155 4.23921C13.1355 3.05177 14.4358 1.93354 15.802 0.898546L15.1981 0.101454ZM4.71289 11.7403C2.8796 14.846 1.55637 18.152 0.89324 21.5183L1.87439 21.7115C2.51294 18.47 3.79076 15.2696 5.57404 12.2486L4.71289 11.7403ZM1.12944 32.0285C1.97101 35.2589 3.57566 38.3936 6.06621 41.303L6.82588 40.6526C4.43065 37.8547 2.8992 34.8551 2.09714 31.7764L1.12944 32.0285ZM14.1548 48C15.5765 48.8608 17.1198 49.6805 18.79 50.4537L19.2102 49.5463C17.5713 48.7875 16.0608 47.985 14.6728 47.1446L14.1548 48ZM18.79 50.4537C20.3969 51.1977 22.0514 51.6928 23.7477 51.9693L23.9086 50.9823C22.2987 50.7199 20.7318 50.2507 19.2102 49.5463L18.79 50.4537ZM33.9839 51.3492C37.0912 50.5838 40.2893 49.3629 43.5554 47.8385L43.1324 46.9324C39.9047 48.4389 36.7699 49.633 33.7447 50.3783L33.9839 51.3492ZM52.5406 43.0839C55.3959 41.4319 58.294 39.6538 61.2202 37.8382L60.6929 36.9885C57.7684 38.8031 54.881 40.5745 52.0398 42.2183L52.5406 43.0839ZM69.8279 32.5132C72.7246 30.7508 75.6375 29.0322 78.5571 27.4361L78.0775 26.5587C75.1391 28.165 72.2118 29.8922 69.3082 31.6589L69.8279 32.5132ZM87.589 22.9807C90.7641 21.6123 93.929 20.4874 97.0708 19.7054L96.8293 18.735C93.6232 19.533 90.406 20.6777 87.1932 22.0624L87.589 22.9807ZM106.961 18.4933C108.621 18.5236 110.271 18.6845 111.908 18.9914L112.092 18.0086C110.398 17.6908 108.692 17.5248 106.979 17.4934L106.961 18.4933ZM111.908 18.9914C113.5 19.29 115.041 19.6529 116.528 20.0686L116.797 19.1055C115.283 18.6822 113.714 18.3127 112.092 18.0086L111.908 18.9914ZM125.399 23.3896C128.504 24.8615 131.246 26.5062 133.595 28.1442L134.167 27.3239C131.777 25.657 128.986 23.9836 125.827 22.486L125.399 23.3896Z" fill="black"/>
</svg>
