<svg width="120" height="61" viewBox="0 0 120 61" fill="none" xmlns="http://www.w3.org/2000/svg">
<path d="M4.57764e-05 30.1296L5.42105 32.1161L0.990227 35.8176L4.57764e-05 30.1296ZM116.451 0.783411C117.18 2.30129 117.76 3.82399 118.198 5.34709L117.237 5.62348C116.814 4.15555 116.255 2.68522 115.55 1.21659L116.451 0.783411ZM119.162 15.0113C118.903 18.2182 118.089 21.3722 116.817 24.4302L115.894 24.0462C117.13 21.0736 117.916 18.0217 118.166 14.9306L119.162 15.0113ZM112.032 32.8591C110.19 35.4058 108.052 37.8458 105.686 40.1497L104.989 39.4333C107.317 37.1651 109.417 34.7682 111.222 32.273L112.032 32.8591ZM98.3095 46.3785C95.7338 48.2732 93.0123 50.0242 90.2 51.6066L89.7096 50.7351C92.4877 49.1719 95.175 47.4429 97.7169 45.573L98.3095 46.3785ZM81.5274 55.8311C78.5031 57.0863 75.4391 58.1375 72.3954 58.9572L72.1354 57.9916C75.1349 57.1838 78.1577 56.1469 81.1441 54.9075L81.5274 55.8311ZM62.8943 60.7462C61.2554 60.9137 59.6415 61 58.0632 61V60C59.6052 60 61.1851 59.9157 62.7926 59.7514L62.8943 60.7462ZM58.0632 61C56.2063 61 54.3084 60.9157 52.3784 60.7408L52.4686 59.7449C54.3688 59.917 56.2366 60 58.0632 60V61ZM41.1846 58.7475C37.6447 57.8052 34.0571 56.5493 30.4694 54.9467L30.8773 54.0336C34.4159 55.6143 37.9531 56.8524 41.4418 57.7811L41.1846 58.7475ZM20.4793 49.5369C17.4024 47.5608 14.3594 45.3005 11.3812 42.7347L12.0339 41.9771C14.9768 44.5125 17.9824 46.7447 21.0197 48.6955L20.4793 49.5369ZM3.27766 34.7791C3.02061 34.4929 2.76434 34.2041 2.50888 33.9125L3.26103 33.2535C3.51381 33.542 3.76736 33.8278 4.02165 34.111L3.27766 34.7791Z" fill="black"/>
</svg>
