<svg width="176" height="91" viewBox="0 0 176 91" fill="none" xmlns="http://www.w3.org/2000/svg">
<path d="M176 53.8051L170.23 54.0172L173.299 58.9078L176 53.8051ZM50.1989 1.46273L50.1533 0.964814L50.1989 1.46273ZM171.932 55.7669C171.839 55.8227 171.745 55.8781 171.652 55.9332L172.16 56.7945C172.254 56.7388 172.349 56.6827 172.444 56.6263L171.932 55.7669ZM163.28 60.2071C160.138 61.5438 157.18 62.4801 154.382 63.0632L154.586 64.0422C157.455 63.4441 160.476 62.4866 163.671 61.1273L163.28 60.2071ZM145.066 63.7274C141.854 63.4815 138.859 62.7247 136.028 61.5546L135.646 62.4788C138.568 63.6867 141.666 64.47 144.99 64.7245L145.066 63.7274ZM127.935 56.8713C125.498 55.0551 123.162 52.9506 120.882 50.6405L120.171 51.3429C122.476 53.679 124.85 55.8194 127.337 57.6731L127.935 56.8713ZM114.544 43.6239C112.541 41.2503 110.555 38.7784 108.549 36.2692L107.768 36.8937C109.774 39.4028 111.768 41.884 113.779 44.2687L114.544 43.6239ZM102.579 28.8666C100.561 26.4178 98.4935 23.9948 96.3479 21.6594L95.6115 22.3359C97.7409 24.6538 99.7956 27.062 101.807 29.5026L102.579 28.8666ZM89.5868 14.9232C87.2048 12.7833 84.7072 10.7962 82.0617 9.02728L81.5058 9.85857C84.1057 11.5969 86.5658 13.5535 88.9185 15.6671L89.5868 14.9232ZM73.6589 4.44466C70.7855 3.2194 67.7451 2.25936 64.5088 1.62266L64.3157 2.60385C67.4808 3.22654 70.4546 4.16544 73.2667 5.36452L73.6589 4.44466ZM54.9651 0.732023C53.4027 0.738013 51.7995 0.814116 50.1533 0.964814L50.2445 1.96065C51.8624 1.81254 53.4364 1.73789 54.9689 1.73201L54.9651 0.732023ZM50.1533 0.964814C48.5403 1.11249 46.9508 1.36446 45.3877 1.71336L45.6055 2.68934C47.1279 2.34956 48.675 2.10433 50.2445 1.96065L50.1533 0.964814ZM36.3213 4.92177C33.4755 6.31333 30.7515 8.02181 28.1679 9.99075L28.774 10.7861C31.3101 8.85339 33.9786 7.18047 36.7606 5.82012L36.3213 4.92177ZM21.0468 16.4203C18.872 18.7172 16.838 21.2003 14.9607 23.8225L15.7737 24.4046C17.6262 21.8172 19.6313 19.3697 21.773 17.1079L21.0468 16.4203ZM9.87785 31.942C8.346 34.7536 6.98071 37.6565 5.79717 40.6063L6.72525 40.9787C7.89433 38.065 9.24296 35.1974 10.756 32.4205L9.87785 31.942ZM2.76987 49.6907C1.93087 52.8408 1.30906 55.9941 0.922654 59.0989L1.915 59.2224C2.29547 56.1654 2.90819 53.0569 3.73619 49.9481L2.76987 49.6907ZM0.506309 68.6867C0.652447 72.0076 1.1224 75.201 1.94421 78.1911L2.90847 77.9261C2.10887 75.0168 1.64861 71.8985 1.50535 68.6428L0.506309 68.6867ZM5.83141 87.0077C6.71645 88.3656 7.71705 89.6368 8.83762 90.8083L9.56026 90.1171C8.4841 88.9921 7.52174 87.7697 6.66919 86.4617L5.83141 87.0077Z" fill="black"/>
</svg>
